<?xml version="1.0" encoding="UTF-8"?>
<svg id="_レイヤー_1" data-name="レイヤー 1" xmlns="http://www.w3.org/2000/svg" viewBox="0 0 1200 1200">
  <defs>
    <style>
      .cls-1 {
        fill: #c30d23;
        stroke-width: 0px;
      }
    </style>
  </defs>
  <path class="cls-1" d="m100.97,708.47c1.35,7.1,7.66,11.67,14.44,11.71l14.52.02-.13-.49c-14.28-54,17.94-109.37,71.94-123.65l.49-.13-7.19-12.62c-3.36-5.91-10.48-9.1-17.32-6.77-54.85,18.62-87.67,75.04-76.75,131.92Zm106.49-103.39c-1.05.24-2.09.49-3.13.76-48.62,12.86-77.6,62.66-64.74,111.29.27,1.04.58,2.07.89,3.1l124.22.28c1.8.01,3.48-.95,4.38-2.5.9-1.55.91-3.48,0-5.04l-61.62-107.89Zm-43.71,84.73c-1.43-5.4,1.79-10.94,7.19-12.37,5.4-1.43,10.94,1.79,12.37,7.19,1.43,5.4-1.79,10.94-7.19,12.37-5.4,1.43-10.94-1.79-12.37-7.19Zm33.95-29.9c-5.4,1.43-10.94-1.79-12.37-7.19s1.79-10.94,7.19-12.37,10.94,1.79,12.37,7.19-1.79,10.94-7.19,12.37Zm26.3,40.13c-5.4,1.43-10.94-1.79-12.37-7.19s1.79-10.94,7.19-12.37c5.4-1.43,10.94,1.79,12.37,7.19s-1.79,10.94-7.19,12.37Z"/>
  <g>
    <path class="cls-1" d="m359.84,694.95h17.34c9.49,0,14.24,3.3,14.24,9.91,0,4.68-1.67,8.31-5.01,10.89-3.34,2.58-8.03,3.87-14.09,3.87h-18.78c-7.57,0-13.31-1.46-17.23-4.39-3.92-2.92-5.88-7.17-5.88-12.75,0-3.92,1.41-9.39,4.23-16.41l20.74-50.98c4.2-10.32,6.3-17.41,6.3-21.26,0-3.1-1.41-5.86-4.23-8.31-2.82-2.44-6.06-3.66-9.7-3.66-6.88,0-13.11,2.98-18.68,8.93-5.57,5.95-8.36,12.61-8.36,19.97,0,4.27.95,7.57,2.84,9.91,1.89,2.34,5.35,4.51,10.37,6.5,4.47,1.79,6.71,4.85,6.71,9.18,0,3.99-1.5,7.28-4.49,9.86-2.99,2.58-6.73,3.87-11.2,3.87-8.6,0-15.96-3.66-22.08-10.99-6.12-7.33-9.18-16.12-9.18-26.37,0-14.93,5.64-28,16.93-39.22,11.28-11.21,24.42-16.82,39.42-16.82,11.28,0,20.69,3.3,28.23,9.91s11.3,14.83,11.3,24.66c0,7.09-1.79,15.03-5.37,23.84l-24.36,59.86Z"/>
    <path class="cls-1" d="m459.24,640.66h3.2c8.74,0,13.11,3.06,13.11,9.19,0,4.2-1.55,7.47-4.64,9.8-3.1,2.34-7.36,3.51-12.8,3.51h-7.53l-13.83,33.95h11.56c8.74,0,13.11,3.06,13.11,9.18,0,4.2-1.53,7.47-4.59,9.8-3.06,2.34-7.34,3.51-12.85,3.51h-18.47c-5.23,0-9.37-1.2-12.43-3.61-3.06-2.41-4.59-5.68-4.59-9.8,0-2.55.62-5.37,1.86-8.46l1.96-4.54,12.18-30.03h-1.55c-7.71,0-11.56-2.99-11.56-8.98,0-4.26,1.53-7.58,4.59-9.96s7.34-3.56,12.85-3.56h4.75l5.47-13.52,1.13-2.79c3.23-7.64,8.32-11.46,15.27-11.46,2.82,0,5.25.95,7.28,2.84,2.03,1.89,3.05,4.18,3.05,6.86s-.89,5.92-2.68,9.91l-3.82,8.15Z"/>
    <path class="cls-1" d="m546.98,697.12h11.35c8.67,0,13,3.03,13,9.08,0,4.2-1.55,7.48-4.64,9.85s-7.36,3.56-12.8,3.56h-13.21c-5.92,0-9.94-2.3-12.07-6.91-5.16,4.61-10.15,6.91-14.97,6.91h-11.77c-7.57,0-13.67-2.7-18.32-8.1-4.64-5.4-6.97-12.47-6.97-21.21,0-13.21,4.56-25.03,13.68-35.45,9.11-10.42,19.42-15.64,30.91-15.64,8.81,0,15.24,3.06,19.3,9.18,3.44-5.16,7.95-7.74,13.52-7.74,3.03,0,5.56.96,7.59,2.89,2.03,1.93,3.04,4.3,3.04,7.12,0,1.93-.55,4.23-1.65,6.91l-1.14,2.79-14.86,36.74Zm-37.46.52h2.58c5.64,0,9.39-2.3,11.25-6.91l7.22-17.85c.96-2.34,1.44-4.3,1.44-5.88,0-1.86-.91-3.47-2.73-4.85-1.82-1.38-4.01-2.06-6.55-2.06-5.02,0-9.91,2.92-14.65,8.77s-7.12,11.9-7.12,18.16c0,7.09,2.85,10.63,8.57,10.63Z"/>
    <path class="cls-1" d="m608.2,697.12h10.84c8.74,0,13.11,3.06,13.11,9.18,0,4.2-1.53,7.47-4.59,9.8-3.06,2.34-7.34,3.51-12.85,3.51h-18.58c-5.09,0-9.12-1.2-12.07-3.61-2.96-2.41-4.44-5.64-4.44-9.7,0-2.13,1-5.68,2.99-10.63l41.69-102.58,1.14-2.79c3.16-7.7,8.22-11.56,15.17-11.56,2.89,0,5.35.96,7.38,2.89,2.03,1.93,3.05,4.23,3.05,6.91,0,2.06-.52,4.4-1.55,7.02l-1.13,2.79-40.15,98.76Z"/>
    <path class="cls-1" d="m670.66,697.12h11.66c8.67,0,13,3.06,13,9.18,0,4.2-1.53,7.47-4.59,9.8-3.06,2.34-7.34,3.51-12.85,3.51h-16.41c-6.06,0-10.82-1.24-14.29-3.72-3.48-2.48-5.21-5.85-5.21-10.11,0-2.27.72-5.16,2.17-8.67l17.03-41.9,1.13-2.89c3.16-7.77,8.26-11.66,15.27-11.66,2.89,0,5.38.96,7.48,2.89,2.1,1.93,3.15,4.23,3.15,6.91,0,2.2-.93,5.57-2.79,10.11l-14.76,36.53Zm13.62-89.37c3.99,0,7.38,1.39,10.17,4.18s4.18,6.18,4.18,10.17-1.39,7.38-4.18,10.17c-2.79,2.79-6.18,4.18-10.17,4.18s-7.38-1.39-10.16-4.18-4.18-6.17-4.18-10.17,1.39-7.38,4.18-10.17c2.79-2.79,6.17-4.18,10.16-4.18Z"/>
    <path class="cls-1" d="m775.02,697.12h11.35c8.67,0,13,3.03,13,9.08,0,4.2-1.55,7.48-4.64,9.85s-7.36,3.56-12.8,3.56h-13.21c-5.92,0-9.94-2.3-12.07-6.91-5.16,4.61-10.15,6.91-14.97,6.91h-11.77c-7.57,0-13.67-2.7-18.32-8.1-4.64-5.4-6.97-12.47-6.97-21.21,0-13.21,4.56-25.03,13.68-35.45,9.11-10.42,19.42-15.64,30.91-15.64,8.81,0,15.24,3.06,19.3,9.18,3.44-5.16,7.95-7.74,13.52-7.74,3.03,0,5.56.96,7.59,2.89,2.03,1.93,3.04,4.3,3.04,7.12,0,1.93-.55,4.23-1.65,6.91l-1.14,2.79-14.86,36.74Zm-37.46.52h2.58c5.64,0,9.39-2.3,11.25-6.91l7.22-17.85c.96-2.34,1.44-4.3,1.44-5.88,0-1.86-.91-3.47-2.73-4.85-1.82-1.38-4.01-2.06-6.55-2.06-5.02,0-9.91,2.92-14.65,8.77-4.75,5.85-7.12,11.9-7.12,18.16,0,7.09,2.85,10.63,8.57,10.63Z"/>
    <path class="cls-1" d="m885.05,697.12h12.38c8.74,0,13.11,3.06,13.11,9.18,0,4.2-1.55,7.47-4.64,9.8-3.1,2.34-7.36,3.51-12.8,3.51h-21.57c-4.2,0-7.72-1.27-10.58-3.82s-4.28-5.74-4.28-9.6c0-2.34.96-5.85,2.89-10.53l9.08-22.5c.96-2.34,1.48-4.23,1.55-5.68.07-1.65-.6-3.06-2.01-4.23-1.41-1.17-3.22-1.75-5.42-1.75-7.09,0-12.8,5.33-17.13,16l-12.18,29.93c-3.65,9.08-9.08,13.62-16.31,13.62-2.96,0-5.47-.89-7.53-2.68s-3.1-3.99-3.1-6.6c0-1.92.55-4.23,1.65-6.91l1.13-2.79,20.85-51.39c2.68-6.67,7.26-10.01,13.73-10.01,5.3,0,9.08,2.34,11.35,7.02,7.36-5.64,14.38-8.46,21.05-8.46s11.8,1.86,16,5.57c4.2,3.72,6.3,8.43,6.3,14.14,0,3.16-.76,6.64-2.27,10.42l-11.25,27.76Z"/>
    <path class="cls-1" d="m1036.9,719.61h-29.93c-8.6,0-15.6-3.03-21-9.08-5.4-6.05-8.1-13.9-8.1-23.53,0-12.86,4.44-24.05,13.31-33.54,8.88-9.5,19.3-14.24,31.27-14.24,8.12,0,14.72,2.27,19.82,6.81,5.09,4.54,7.64,10.46,7.64,17.75,0,5.09-1.27,9.27-3.82,12.54-2.55,3.27-5.81,4.9-9.8,4.9-6.33,0-9.49-2.96-9.49-8.88v-2.27c.07-.76.1-1.48.1-2.17,0-4.82-2.37-7.22-7.12-7.22-4.47,0-8.55,2.37-12.23,7.12-3.68,4.75-5.52,10.05-5.52,15.89,0,4.89,1.5,8.34,4.49,10.37,2.99,2.03,8.07,3.05,15.22,3.05h19.5c8.74,0,13.11,3.06,13.11,9.18,0,4.13-1.57,7.38-4.69,9.75-3.13,2.37-7.38,3.56-12.75,3.56Z"/>
    <path class="cls-1" d="m1092.13,697.12h11.66c8.67,0,13,3.06,13,9.18,0,4.2-1.53,7.47-4.59,9.8-3.06,2.34-7.34,3.51-12.85,3.51h-16.41c-6.06,0-10.82-1.24-14.29-3.72-3.48-2.48-5.21-5.85-5.21-10.11,0-2.27.72-5.16,2.17-8.67l17.03-41.9,1.13-2.89c3.16-7.77,8.26-11.66,15.27-11.66,2.89,0,5.38.96,7.48,2.89,2.1,1.93,3.15,4.23,3.15,6.91,0,2.2-.93,5.57-2.79,10.11l-14.76,36.53Zm13.62-89.37c3.99,0,7.38,1.39,10.17,4.18s4.18,6.18,4.18,10.17-1.39,7.38-4.18,10.17c-2.79,2.79-6.18,4.18-10.17,4.18s-7.38-1.39-10.16-4.18-4.18-6.17-4.18-10.17,1.39-7.38,4.18-10.17c2.79-2.79,6.17-4.18,10.16-4.18Z"/>
    <path class="cls-1" d="m1177.61,640.66h3.2c8.74,0,13.11,3.06,13.11,9.19,0,4.2-1.55,7.47-4.64,9.8-3.1,2.34-7.36,3.51-12.8,3.51h-7.53l-13.83,33.95h11.56c8.74,0,13.11,3.06,13.11,9.18,0,4.2-1.53,7.47-4.59,9.8-3.06,2.34-7.34,3.51-12.85,3.51h-18.47c-5.23,0-9.37-1.2-12.44-3.61-3.06-2.41-4.59-5.68-4.59-9.8,0-2.55.62-5.37,1.86-8.46l1.96-4.54,12.18-30.03h-1.55c-7.71,0-11.56-2.99-11.56-8.98,0-4.26,1.53-7.58,4.59-9.96,3.06-2.37,7.34-3.56,12.85-3.56h4.75l5.47-13.52,1.13-2.79c3.23-7.64,8.32-11.46,15.27-11.46,2.82,0,5.25.95,7.28,2.84,2.03,1.89,3.05,4.18,3.05,6.86s-.89,5.92-2.68,9.91l-3.82,8.15Z"/>
  </g>
</svg>